# xmcd
#
# Track frame offsets: 
#        150
#        14535
#        34203
#        51038
#        72566
#        89579
#        114394
#        134160
#        148910
#        172829
#
# Disc length: 2560 seconds
#
# Revision: 0
# Processed by: cddbd v1.5.2PL0 Copyright (c) Steve Scherf et al.
# Submitted via: ExactAudioCopy v1.2
#
DISCID=9609fe0a
DTITLE=Joe Rusi - A Tout le Monde From
DYEAR=2017
DGENRE=Blues
TTITLE0=Blues Don't Like To Come Out Before Midnight
TTITLE1=A Tout Le Monde From New Orleans
TTITLE2=High
TTITLE3=Gone
TTITLE4=Blame It On Me
TTITLE5=Happiness
TTITLE6=Small Town Talk
TTITLE7=For The Love Of The Blues
TTITLE8=Cry
TTITLE9=Having A Good Time
EXTD=
EXTT0=
EXTT1=
EXTT2=
EXTT3=
EXTT4=
EXTT5=
EXTT6=
EXTT7=
EXTT8=
EXTT9=
PLAYORDER=
